<?xml version="1.0" encoding="utf-8"?>
<!-- Generator: Adobe Illustrator 28.1.0, SVG Export Plug-In . SVG Version: 6.00 Build 0)  -->
<svg version="1.1" id="Livello_1" xmlns="http://www.w3.org/2000/svg" xmlns:xlink="http://www.w3.org/1999/xlink" x="0px" y="0px"
	 viewBox="0 0 85.4 13.2" style="enable-background:new 0 0 85.4 13.2;" xml:space="preserve">
<style type="text/css">
	.st0{fill:#28A7A6;}
</style>
<g>
	<g>
		<path class="st0" d="M0,9.8c0.4,0,0.7-0.1,0.9-0.2c0.3-0.2,0.4-0.5,0.4-0.9V1.5c0-0.4-0.1-0.7-0.4-0.9C0.7,0.5,0.4,0.4,0,0.4V0
			h5.2v0.4c-0.6,0-1,0.1-1.2,0.3C3.8,0.8,3.7,1.2,3.7,1.8v7.1c0,0.3,0.1,0.6,0.3,0.7c0.2,0.1,0.5,0.2,1,0.2c0.9,0,1.7-0.2,2.3-0.6
			c0.6-0.4,1.1-1.2,1.6-2.3h0.4l-0.6,3.4H0V9.8z"/>
		<path class="st0" d="M11.2,4.1c0.6-0.7,1.4-1,2.4-1c1,0,1.8,0.4,2.4,1.1C16.7,4.8,17,5.7,17,6.7c0,1-0.3,1.9-0.9,2.6
			c-0.6,0.7-1.4,1.1-2.4,1.1c-1,0-1.8-0.4-2.4-1.1c-0.6-0.7-1-1.6-1-2.6C10.2,5.7,10.5,4.8,11.2,4.1z M12.6,8.9c0.2,0.6,0.5,1,1,1
			c0.5,0,0.8-0.2,1-0.7c0.2-0.5,0.2-1.3,0.2-2.4c0-1.1-0.1-1.9-0.2-2.4c-0.2-0.5-0.5-0.8-0.9-0.8c-0.5,0-0.8,0.3-1,1
			c-0.1,0.4-0.2,1.2-0.2,2.2C12.4,7.8,12.5,8.5,12.6,8.9z"/>
		<path class="st0" d="M17.8,9.8c0.3,0,0.5-0.1,0.6-0.2s0.2-0.3,0.2-0.6l0-0.4V4.5c0-0.3-0.1-0.5-0.2-0.6s-0.3-0.2-0.6-0.2V3.2h2.8
			v1.2c0.3-0.4,0.6-0.7,0.9-1s0.7-0.4,1.1-0.4c0.3,0,0.6,0.1,0.8,0.3c0.2,0.2,0.4,0.5,0.4,0.9c0,0.3-0.1,0.5-0.3,0.7
			c-0.2,0.2-0.4,0.3-0.7,0.3c-0.3,0-0.6-0.1-0.8-0.4c-0.2-0.3-0.4-0.4-0.5-0.4c-0.2,0-0.4,0.1-0.6,0.4s-0.3,0.6-0.3,1.1v2.8
			c0,0.5,0.1,0.8,0.2,0.9c0.1,0.1,0.4,0.2,0.9,0.2v0.4h-4V9.8z"/>
		<path class="st0" d="M25.3,4c0.6-0.6,1.4-1,2.2-1c0.5,0,1,0.1,1.4,0.4c0.4,0.3,0.8,0.6,1,1.1c0.2,0.3,0.3,0.8,0.4,1.3
			c0,0.3,0.1,0.5,0.1,0.6h-3.8c0,0.6,0.1,1.1,0.3,1.6c0.3,0.8,0.8,1.2,1.5,1.2c0.4,0,0.7-0.1,1-0.3c0.2-0.1,0.4-0.4,0.7-0.7l0.3,0.2
			c-0.5,0.8-1,1.3-1.6,1.6c-0.4,0.2-0.9,0.3-1.4,0.3c-0.7,0-1.4-0.3-2.1-0.9c-0.6-0.6-1-1.5-1-2.8C24.4,5.6,24.7,4.7,25.3,4z
			 M28.5,5.9c0-0.9-0.1-1.5-0.2-1.9c-0.1-0.4-0.4-0.5-0.8-0.5c-0.4,0-0.7,0.2-0.8,0.6s-0.2,1-0.2,1.8H28.5z"/>
		<path class="st0" d="M31.1,9.8c0.3,0,0.5-0.1,0.6-0.2c0.2-0.1,0.2-0.4,0.2-0.7V4.5c0-0.3-0.1-0.5-0.2-0.6
			c-0.1-0.1-0.3-0.2-0.6-0.2V3.2H34v1.1c0.2-0.3,0.5-0.6,0.7-0.8c0.4-0.3,0.9-0.5,1.5-0.5c0.6,0,1.1,0.1,1.4,0.4
			c0.2,0.2,0.4,0.4,0.5,0.8h0.1c0.3-0.3,0.6-0.6,0.8-0.8c0.4-0.3,0.9-0.4,1.3-0.4c0.5,0,1,0.2,1.4,0.5c0.4,0.3,0.6,0.9,0.6,1.6v3.8
			c0,0.3,0.1,0.6,0.2,0.7c0.1,0.1,0.3,0.2,0.6,0.2v0.4h-3.6V9.8c0.3,0,0.5-0.1,0.6-0.2c0.1-0.1,0.2-0.3,0.2-0.6V5.3
			c0-0.4-0.1-0.7-0.2-0.9c-0.1-0.2-0.3-0.3-0.7-0.3c-0.3,0-0.5,0.1-0.8,0.4c-0.3,0.2-0.4,0.4-0.4,0.5v4c0,0.3,0,0.5,0.1,0.6
			c0.1,0.1,0.3,0.2,0.5,0.2v0.4h-3.5V9.8c0.3,0,0.5-0.1,0.6-0.2c0.1-0.1,0.2-0.3,0.2-0.7V5.3c0-0.4-0.1-0.7-0.2-0.9
			s-0.3-0.3-0.7-0.3c-0.3,0-0.6,0.1-0.9,0.4S34,4.9,34,4.9v4c0,0.3,0,0.5,0.1,0.6s0.3,0.2,0.5,0.2v0.4h-3.6V9.8z"/>
	</g>
	<g>
		<path class="st0" d="M44.5,9.8c0.4,0,0.7-0.1,0.9-0.2c0.3-0.2,0.5-0.5,0.5-0.9V1.4c0-0.4-0.1-0.7-0.4-0.9
			c-0.2-0.1-0.5-0.1-0.9-0.2V0h5.2v0.4c-0.5,0-0.8,0.1-1,0.2c-0.3,0.2-0.4,0.4-0.4,0.9v7.3c0,0.4,0.1,0.7,0.4,0.8s0.6,0.2,1.1,0.2
			v0.4h-5.2V9.8z"/>
		<path class="st0" d="M50.5,12.9c0.3,0,0.5-0.1,0.7-0.2c0.1-0.1,0.2-0.3,0.2-0.6V4.5c0-0.3-0.1-0.5-0.2-0.6
			c-0.1-0.1-0.3-0.2-0.6-0.2V3.2h2.9v1c0.2-0.3,0.4-0.6,0.6-0.8C54.3,3.2,54.8,3,55.3,3c0.8,0,1.4,0.3,2,0.9
			c0.5,0.6,0.8,1.5,0.8,2.6c0,1.1-0.3,2-0.8,2.7c-0.6,0.7-1.2,1.1-2,1.1c-0.4,0-0.8-0.1-1.2-0.4c-0.2-0.1-0.4-0.3-0.6-0.5v1.3
			c0,0.7,0,1.1,0,1.1c0,0.4,0.1,0.7,0.3,0.8c0.2,0.1,0.5,0.2,0.8,0.3v0.3h-4.1V12.9z M55.7,8.4c0.1-0.4,0.2-1,0.2-1.7
			c0-0.9-0.1-1.5-0.2-2.1s-0.5-0.8-1-0.8c-0.3,0-0.6,0.1-0.9,0.4S53.4,4.8,53.4,5v3.6c0,0.1,0.1,0.3,0.4,0.6
			c0.2,0.2,0.5,0.3,0.8,0.3C55.1,9.5,55.5,9.2,55.7,8.4z"/>
		<path class="st0" d="M59.1,7.9h0.4c0.1,0.7,0.4,1.2,0.8,1.5c0.4,0.3,0.8,0.4,1.2,0.4c0.4,0,0.7-0.1,0.8-0.3
			c0.2-0.2,0.3-0.4,0.3-0.7c0-0.3-0.1-0.5-0.3-0.7c-0.1-0.1-0.3-0.2-0.5-0.3l-1.1-0.5c-0.6-0.3-1-0.6-1.3-0.9
			c-0.3-0.3-0.4-0.7-0.4-1.2c0-0.6,0.2-1.1,0.6-1.5c0.4-0.4,1-0.6,1.7-0.6c0.3,0,0.7,0.1,1,0.2s0.6,0.2,0.7,0.2c0.1,0,0.2,0,0.3-0.1
			c0.1-0.1,0.1-0.1,0.1-0.2h0.3v2.2h-0.4C63.3,4.7,63,4.3,62.7,4S62,3.6,61.6,3.6c-0.3,0-0.6,0.1-0.7,0.3c-0.2,0.2-0.2,0.4-0.2,0.6
			c0,0.2,0.1,0.4,0.2,0.5c0.1,0.2,0.4,0.4,0.8,0.6l0.8,0.4c0.5,0.2,0.9,0.5,1.1,0.7c0.4,0.4,0.6,0.9,0.6,1.4c0,0.6-0.2,1.1-0.6,1.6
			c-0.4,0.5-1,0.7-1.8,0.7c-0.2,0-0.4,0-0.6-0.1c-0.2,0-0.5-0.1-0.8-0.2L60.1,10c-0.1,0-0.2-0.1-0.2-0.1c0,0-0.1,0-0.1,0
			c-0.1,0-0.2,0-0.2,0.1c-0.1,0.1-0.1,0.2-0.2,0.3h-0.4V7.9z"/>
		<path class="st0" d="M67.7,3.2v5.1c0,0.3,0,0.5,0.1,0.7c0.1,0.2,0.4,0.4,0.8,0.4c0.2,0,0.5-0.1,0.7-0.2c0.1-0.1,0.3-0.2,0.5-0.4
			V4.5c0-0.3-0.1-0.5-0.2-0.7c-0.1-0.1-0.4-0.2-0.8-0.2V3.2h3v5.4c0,0.3,0.1,0.5,0.2,0.6c0.1,0.1,0.3,0.2,0.7,0.2v0.3
			C71.8,9.9,71.2,10,71,10c-0.2,0-0.6,0.1-1.2,0.3v-1c-0.4,0.3-0.7,0.5-0.9,0.7c-0.4,0.2-0.8,0.3-1.3,0.3c-0.5,0-0.9-0.2-1.4-0.5
			c-0.4-0.3-0.6-0.9-0.6-1.6V4.5c0-0.3-0.1-0.5-0.2-0.6s-0.3-0.2-0.6-0.2V3.2H67.7z"/>
		<path class="st0" d="M73.4,9.8c0.3,0,0.5-0.1,0.6-0.2c0.2-0.1,0.2-0.4,0.2-0.7V4.5c0-0.3-0.1-0.5-0.2-0.6
			c-0.1-0.1-0.3-0.2-0.6-0.2V3.2h2.8v1.1C76.5,4,76.7,3.7,77,3.5c0.4-0.3,0.9-0.5,1.5-0.5c0.6,0,1.1,0.1,1.4,0.4
			c0.2,0.2,0.4,0.4,0.5,0.8h0.1c0.3-0.3,0.6-0.6,0.8-0.8c0.4-0.3,0.9-0.4,1.3-0.4c0.5,0,1,0.2,1.4,0.5c0.4,0.3,0.6,0.9,0.6,1.6v3.8
			c0,0.3,0.1,0.6,0.2,0.7c0.1,0.1,0.3,0.2,0.6,0.2v0.4h-3.6V9.8c0.3,0,0.5-0.1,0.6-0.2c0.1-0.1,0.2-0.3,0.2-0.6V5.3
			c0-0.4-0.1-0.7-0.2-0.9c-0.1-0.2-0.3-0.3-0.7-0.3c-0.3,0-0.5,0.1-0.8,0.4c-0.3,0.2-0.4,0.4-0.4,0.5v4c0,0.3,0,0.5,0.1,0.6
			c0.1,0.1,0.3,0.2,0.5,0.2v0.4h-3.5V9.8c0.3,0,0.5-0.1,0.6-0.2c0.1-0.1,0.2-0.3,0.2-0.7V5.3c0-0.4-0.1-0.7-0.2-0.9
			s-0.3-0.3-0.7-0.3c-0.3,0-0.6,0.1-0.9,0.4s-0.4,0.4-0.4,0.5v4c0,0.3,0,0.5,0.1,0.6s0.3,0.2,0.5,0.2v0.4h-3.6V9.8z"/>
	</g>
</g>
</svg>
