<?xml version="1.0" encoding="utf-8"?>
<!-- Generator: Adobe Illustrator 26.3.1, SVG Export Plug-In . SVG Version: 6.00 Build 0)  -->
<svg version="1.1" id="Livello_1" xmlns="http://www.w3.org/2000/svg" xmlns:xlink="http://www.w3.org/1999/xlink" x="0px" y="0px"
	 viewBox="0 0 420 375.4" style="enable-background:new 0 0 420 375.4;" xml:space="preserve">
<style type="text/css">
	.st0{fill:#0D0D0D;}
</style>
<g>
	<path class="st0" d="M420,375c-55.6,0.9-111.3,0-166.9,0.4c-5,0-7.2-1.6-8.9-6.3c-39.4-107-77.9-214.3-118.2-320.9
		c-6.2-14.7-14.6-32.5-32.2-34.9c-10.8-2.2-21.7-3.1-32.7-3.2C51.1,10.1,51.1,10,52,0c57.7,0,115.3,0,173,0
		c42.2,112.3,81.1,225.9,125.3,337.5c11.9,30.7,43.5,25.1,69.7,28.5C420,369,420,372,420,375z"/>
	<path class="st0" d="M0,288c8.5-93.9,142.2-100.9,161.2-11.2C182.1,398.3-3.2,410.5,0,288z"/>
</g>
</svg>
